# 3ds Max Wavefront OBJ Exporter v0.97b - (c)2007 guruware
# File Created: 26.04.2018 11:40:05

#
# object Box001
#

v  -30.0000 0.0000 60.0000
v  30.0000 0.0000 60.0000
v  -30.0000 0.0000 -60.0000
v  30.0000 0.0000 -60.0000
v  -30.0000 80.0000 60.0000
v  30.0000 80.0000 60.0000
v  -30.0000 80.0000 -60.0000
v  30.0000 80.0000 -60.0000
v  -30.0000 0.0000 20.0000
v  -30.0000 0.0000 -20.0000
v  30.0000 0.0000 -20.0000
v  30.0000 0.0000 20.0000
v  30.0000 80.0000 20.0000
v  30.0000 80.0000 -20.0000
v  -30.0000 80.0000 -20.0000
v  -30.0000 80.0000 20.0000
v  30.0000 60.0000 60.0000
v  -30.0000 60.0000 60.0000
v  30.0000 60.0000 -60.0000
v  -30.0000 60.0000 -60.0000
v  30.0000 60.0000 -20.0000
v  30.0000 60.0000 20.0000
v  -30.0000 60.0000 20.0000
v  -30.0000 60.0000 -20.0000
v  -15.0000 0.0000 -60.0000
v  -15.0000 0.0000 60.0000
v  -15.0000 80.0000 60.0000
v  -15.0000 80.0000 -60.0000
v  -15.0000 0.0000 -20.0000
v  -15.0000 0.0000 20.0000
v  -15.0000 80.0000 -20.0000
v  -15.0000 80.0000 20.0000
v  -15.0000 60.0000 60.0000
v  -15.0000 60.0000 -60.0000
v  -15.0000 60.0000 -20.0000
v  -15.0000 60.0000 20.0000
# 36 vertices

vn -0.7071 -0.7071 -0.0000
vn -0.7071 -0.7071 -0.0000
vn 0.3015 -0.9045 0.3015
vn 0.3015 -0.9045 -0.3015
vn 0.7071 0.7071 -0.0000
vn 0.7071 0.7071 -0.0000
vn 0.0000 1.0000 -0.0000
vn 0.0000 1.0000 -0.0000
vn -0.5774 -0.5774 0.5774
vn 0.0000 -0.7071 0.7071
vn 0.0000 0.0000 1.0000
vn -0.7071 0.0000 0.7071
vn 0.5774 -0.5774 -0.5774
vn 0.0000 -0.7071 -0.7071
vn 0.0000 0.0000 -1.0000
vn 0.7071 0.0000 -0.7071
vn -0.7071 -0.7071 -0.0000
vn -0.7071 -0.7071 -0.0000
vn -1.0000 0.0000 -0.0000
vn -1.0000 0.0000 -0.0000
vn -0.7071 -0.7071 -0.0000
vn -0.5774 -0.5774 -0.5774
vn 0.0000 -0.7071 -0.7071
vn 0.3015 -0.9045 0.3015
vn 0.5774 -0.5774 -0.5774
vn 0.5774 -0.5774 0.5774
vn 0.0000 -0.7071 0.7071
vn 0.3015 -0.9045 -0.3015
vn 0.7071 0.7071 -0.0000
vn 0.5774 0.5774 -0.5774
vn 0.0000 0.7071 -0.7071
vn 0.0000 1.0000 -0.0000
vn -0.7071 0.7071 -0.0000
vn -0.5774 0.5774 0.5774
vn 0.0000 0.7071 0.7071
vn 0.0000 1.0000 -0.0000
vn 0.5774 -0.5774 0.5774
vn 0.5774 -0.5774 -0.5774
vn 0.7071 0.0000 -0.7071
vn 0.9045 -0.3015 0.3015
vn 0.7071 0.7071 -0.0000
vn 0.5774 0.5774 0.5774
vn 0.7071 0.0000 0.7071
vn 0.9045 -0.3015 -0.3015
vn -0.7071 -0.7071 -0.0000
vn -0.5774 -0.5774 0.5774
vn -0.7071 0.0000 0.7071
vn -1.0000 0.0000 -0.0000
vn -0.7071 0.7071 -0.0000
vn -0.5774 0.5774 -0.5774
vn -0.7071 0.0000 -0.7071
vn -1.0000 0.0000 -0.0000
vn 0.7071 0.0000 0.7071
vn 0.5774 0.5774 0.5774
vn 0.0000 0.7071 0.7071
vn 0.0000 0.0000 1.0000
vn 0.9045 -0.3015 0.3015
vn 0.7071 0.7071 -0.0000
vn 0.7071 0.7071 -0.0000
vn 0.9045 -0.3015 -0.3015
vn -0.7071 0.0000 -0.7071
vn -0.5774 0.5774 -0.5774
vn 0.0000 0.7071 -0.7071
vn 0.0000 0.0000 -1.0000
vn -1.0000 0.0000 -0.0000
vn -0.7071 0.7071 -0.0000
vn -0.7071 0.7071 -0.0000
vn -1.0000 0.0000 -0.0000
vn 0.7071 0.0000 -0.7071
vn 0.5774 0.5774 -0.5774
vn 0.7071 0.7071 -0.0000
vn 0.9045 -0.3015 0.3015
vn 0.7071 0.0000 0.7071
vn 0.5774 -0.5774 0.5774
vn 0.5774 -0.5774 -0.5774
vn 0.9045 -0.3015 -0.3015
vn -0.7071 0.0000 0.7071
vn -0.5774 0.5774 0.5774
vn -0.7071 0.7071 -0.0000
vn -1.0000 0.0000 -0.0000
vn -0.7071 0.0000 -0.7071
vn -0.5774 -0.5774 -0.5774
vn -0.7071 -0.7071 -0.0000
vn -1.0000 0.0000 -0.0000
vn 0.0000 1.0000 -0.0000
vn -0.7071 0.7071 -0.0000
vn -0.7071 0.7071 -0.0000
vn 0.0000 1.0000 -0.0000
vn 0.0000 -0.7071 0.7071
vn 0.5774 -0.5774 0.5774
vn 0.7071 0.0000 0.7071
vn 0.0000 0.0000 1.0000
vn 0.0000 -0.7071 -0.7071
vn -0.5774 -0.5774 -0.5774
vn -0.7071 0.0000 -0.7071
vn 0.0000 0.0000 -1.0000
vn 0.0000 -0.7071 -0.7071
vn 0.5774 -0.5774 -0.5774
vn 0.5774 -0.5774 0.5774
vn 0.3015 -0.9045 0.3015
vn 0.0000 -0.7071 0.7071
vn -0.5774 -0.5774 0.5774
vn -0.7071 -0.7071 -0.0000
vn 0.3015 -0.9045 -0.3015
vn 0.0000 0.7071 -0.7071
vn -0.5774 0.5774 -0.5774
vn -0.7071 0.7071 -0.0000
vn 0.0000 1.0000 -0.0000
vn 0.0000 0.7071 0.7071
vn 0.5774 0.5774 0.5774
vn 0.7071 0.7071 -0.0000
vn 0.0000 1.0000 -0.0000
vn 0.0000 0.7071 0.7071
vn -0.5774 0.5774 0.5774
vn -0.7071 0.0000 0.7071
vn 0.0000 0.0000 1.0000
vn 0.0000 0.7071 -0.7071
vn 0.5774 0.5774 -0.5774
vn 0.7071 0.0000 -0.7071
vn 0.0000 0.0000 -1.0000
vn 0.3015 -0.9045 -0.3015
vn 0.3015 -0.9045 0.3015
vn 0.5774 -0.5774 0.5774
vn 0.5774 -0.5774 -0.5774
vn 0.5774 -0.5774 -0.5774
vn 0.5774 -0.5774 0.5774
vn 0.9045 -0.3015 0.3015
vn 0.9045 -0.3015 -0.3015
vn 0.5774 -0.5774 0.5774
vn 0.3015 -0.9045 0.3015
vn 0.5774 -0.5774 0.5774
vn 0.9045 -0.3015 0.3015
vn 0.5774 -0.5774 -0.5774
vn 0.9045 -0.3015 -0.3015
vn 0.5774 -0.5774 -0.5774
vn 0.3015 -0.9045 -0.3015
# 136 vertex normals

vt 1.0000 0.0000 0.0000
vt 0.0000 0.0000 0.0000
vt 1.0000 1.0000 0.0000
vt 0.0000 1.0000 0.0000
vt 0.0000 0.0000 0.0000
vt 1.0000 0.0000 0.0000
vt 0.0000 1.0000 0.0000
vt 1.0000 1.0000 0.0000
vt 0.0000 0.0000 0.0000
vt 1.0000 0.0000 0.0000
vt 0.0000 1.0000 0.0000
vt 1.0000 1.0000 0.0000
vt 0.0000 0.0000 0.0000
vt 1.0000 0.0000 0.0000
vt 0.0000 1.0000 0.0000
vt 1.0000 1.0000 0.0000
vt 0.0000 0.0000 0.0000
vt 1.0000 0.0000 0.0000
vt 0.0000 1.0000 0.0000
vt 1.0000 1.0000 0.0000
vt 0.0000 0.0000 0.0000
vt 1.0000 0.0000 0.0000
vt 0.0000 1.0000 0.0000
vt 1.0000 1.0000 0.0000
vt 1.0000 0.3333 0.0000
vt 1.0000 0.6667 0.0000
vt 0.6667 0.0000 0.0000
vt 0.3333 0.0000 0.0000
vt 0.0000 0.6667 0.0000
vt 0.0000 0.3333 0.0000
vt 0.6667 0.0000 0.0000
vt 0.3333 0.0000 0.0000
vt 1.0000 0.3333 0.0000
vt 1.0000 0.6667 0.0000
vt 0.3333 1.0000 0.0000
vt 0.6667 1.0000 0.0000
vt 0.0000 0.6667 0.0000
vt 0.0000 0.3333 0.0000
vt 0.3333 1.0000 0.0000
vt 0.6667 1.0000 0.0000
vt 1.0000 0.7500 0.0000
vt 0.0000 0.7500 0.0000
vt 0.0000 0.7500 0.0000
vt 1.0000 0.7500 0.0000
vt 1.0000 0.7500 0.0000
vt 0.0000 0.7500 0.0000
vt 1.0000 0.7500 0.0000
vt 0.0000 0.7500 0.0000
vt 0.6667 0.7500 0.0000
vt 0.3333 0.7500 0.0000
vt 0.6667 0.7500 0.0000
vt 0.3333 0.7500 0.0000
vt 0.7500 1.0000 0.0000
vt 0.7500 0.0000 0.0000
vt 0.7500 0.0000 0.0000
vt 0.2500 0.0000 0.0000
vt 0.2500 0.0000 0.0000
vt 0.2500 1.0000 0.0000
vt 0.2500 1.0000 0.0000
vt 0.7500 1.0000 0.0000
vt 0.7500 0.6667 0.0000
vt 0.7500 0.3333 0.0000
vt 0.2500 0.6667 0.0000
vt 0.2500 0.3333 0.0000
vt 0.2500 0.7500 0.0000
vt 0.7500 0.7500 0.0000
vt 0.7500 0.6667 0.0000
vt 0.7500 0.3333 0.0000
# 68 texture coords

o Box001
g Box001
s 2
f 9/25/1 10/26/2 29/61/3 30/62/4 
s 4
f 13/33/5 14/34/6 31/63/7 32/64/8 
s 8
f 1/9/9 26/56/10 33/65/11 18/43/12 
s 32
f 4/17/13 25/54/14 34/66/15 19/46/16 
s 64
f 10/28/17 9/27/18 23/51/19 24/52/20 
s 2
f 10/26/21 3/3/22 25/53/23 29/61/24 
f 12/30/25 2/2/26 26/55/27 30/62/28 
s 4
f 14/34/29 8/8/30 28/59/31 31/63/32 
f 16/38/33 5/5/34 27/57/35 32/64/36 
s 16
f 11/31/37 4/14/38 19/45/39 21/49/40 
f 13/35/41 6/15/42 17/42/43 22/50/44 
s 64
f 9/27/45 1/22/46 18/44/47 23/51/48 
f 15/39/49 7/23/50 20/48/51 24/52/52 
s 8
f 17/41/53 6/12/54 27/58/55 33/65/56 
s 16
f 21/49/57 14/36/58 13/35/59 22/50/60 
s 32
f 20/47/61 7/20/62 28/60/63 34/66/64 
s 64
f 23/51/65 16/40/66 15/39/67 24/52/68 
s 16
f 19/45/69 8/16/70 14/36/71 21/49/72 
f 17/42/73 2/13/74 12/32/75 22/50/76 
s 64
f 18/44/77 5/24/78 16/40/79 23/51/80 
f 20/48/81 3/21/82 10/28/83 24/52/84 
s 4
f 31/63/85 15/37/86 16/38/87 32/64/88 
s 8
f 26/56/89 2/10/90 17/41/91 33/65/92 
s 32
f 25/54/93 3/18/94 20/47/95 34/66/96 
s 2
f 25/53/97 4/4/98 11/29/99 29/61/100 
f 26/55/101 1/1/102 9/25/103 30/62/104 
s 4
f 28/59/105 7/7/106 15/37/107 31/63/108 
f 27/57/109 6/6/110 13/33/111 32/64/112 
s 8
f 27/58/113 5/11/114 18/43/115 33/65/116 
s 32
f 28/60/117 8/19/118 19/46/119 34/66/120 
s off
f 30/62/121 29/61/122 35/67/123 36/68/124 
s 1
f 36/36/125 35/35/126 21/21/127 22/22/128 
s 4
f 35/35/129 29/29/130 11/11/131 21/21/132 
f 36/36/133 22/22/134 12/12/135 30/30/136 
# 34 polygons

